<svg width="21" height="21" viewBox="0 0 21 21" fill="none" xmlns="http://www.w3.org/2000/svg">
<path id="Vector" d="M10.7661 7.37313C8.9299 7.37313 7.43142 8.87161 7.43142 10.7078C7.43142 12.544 8.9299 14.0425 10.7661 14.0425C12.6023 14.0425 14.1008 12.544 14.1008 10.7078C14.1008 8.87161 12.6023 7.37313 10.7661 7.37313ZM20.7677 10.7078C20.7677 9.32691 20.7802 7.95851 20.7026 6.58011C20.6251 4.97905 20.2598 3.55812 19.0891 2.38735C17.9158 1.21408 16.4974 0.851345 14.8963 0.773795C13.5154 0.696244 12.147 0.708752 10.7686 0.708752C9.3877 0.708752 8.0193 0.696244 6.6409 0.773795C5.03985 0.851345 3.61891 1.21659 2.44814 2.38735C1.27487 3.56062 0.912137 4.97905 0.834586 6.58011C0.757035 7.96101 0.769543 9.32941 0.769543 10.7078C0.769543 12.0862 0.757035 13.4571 0.834586 14.8355C0.912137 16.4366 1.27738 17.8575 2.44814 19.0283C3.62142 20.2015 5.03985 20.5643 6.6409 20.6418C8.0218 20.7194 9.3902 20.7069 10.7686 20.7069C12.1495 20.7069 13.5179 20.7194 14.8963 20.6418C16.4974 20.5643 17.9183 20.199 19.0891 19.0283C20.2623 17.855 20.6251 16.4366 20.7026 14.8355C20.7827 13.4571 20.7677 12.0887 20.7677 10.7078ZM10.7661 15.8387C7.92674 15.8387 5.63524 13.5472 5.63524 10.7078C5.63524 7.86845 7.92674 5.57695 10.7661 5.57695C13.6055 5.57695 15.897 7.86845 15.897 10.7078C15.897 13.5472 13.6055 15.8387 10.7661 15.8387ZM16.1071 6.5651C15.4442 6.5651 14.9088 6.02974 14.9088 5.36681C14.9088 4.70387 15.4442 4.16852 16.1071 4.16852C16.77 4.16852 17.3054 4.70387 17.3054 5.36681C17.3056 5.52423 17.2747 5.68014 17.2146 5.82561C17.1544 5.97108 17.0662 6.10326 16.9549 6.21457C16.8436 6.32588 16.7114 6.41413 16.5659 6.47428C16.4204 6.53443 16.2645 6.56529 16.1071 6.5651Z" fill="white" fill-opacity="0.8"/>
</svg>
