<svg width="21" height="21" viewBox="0 0 21 21" fill="none" xmlns="http://www.w3.org/2000/svg">
<g id="linkedin-105 1" clip-path="url(#clip0_196_2809)">
<path id="Vector" d="M17.4094 0.719727H4.12817C2.28067 0.719727 0.768799 2.2316 0.768799 4.0791V17.3603C0.768799 19.2078 2.28067 20.7197 4.12817 20.7197H17.4094C19.2569 20.7197 20.7688 19.2078 20.7688 17.3603V4.0791C20.7688 2.2316 19.2569 0.719727 17.4094 0.719727ZM8.26879 16.9697H5.76879V8.21971H8.26879V16.9697ZM7.01879 6.96972C6.32816 6.96972 5.76879 6.41034 5.76879 5.71972C5.76879 5.02909 6.32816 4.46972 7.01879 4.46972C7.70941 4.46972 8.26879 5.02909 8.26879 5.71972C8.26879 6.41034 7.70941 6.96972 7.01879 6.96972ZM17.0188 16.9697H14.5188V11.9697C14.5188 11.2791 13.9594 10.7197 13.2688 10.7197C12.5782 10.7197 12.0188 11.2791 12.0188 11.9697V16.9697H9.51878V8.21971H12.0188V9.77159C12.5344 9.06346 13.3225 8.21971 14.2063 8.21971C15.7594 8.21971 17.0188 9.61909 17.0188 11.3447V16.9697Z" fill="white" fill-opacity="0.8"/>
</g>
<defs>
<clipPath id="clip0_196_2809">
<rect width="20" height="20" fill="white" transform="translate(0.768799 0.708008)"/>
</clipPath>
</defs>
</svg>
