<svg width="12" height="25" viewBox="0 0 12 25" fill="none" xmlns="http://www.w3.org/2000/svg">
<path d="M6.968 22.98C6.968 23.5133 6.79733 23.94 6.456 24.26C6.11467 24.5587 5.66667 24.708 5.112 24.708C4.57867 24.708 4.152 24.5373 3.832 24.196C3.512 23.8547 3.352 23.428 3.352 22.916C3.352 22.3827 3.512 21.9453 3.832 21.604C4.152 21.2413 4.568 21.06 5.08 21.06C5.592 21.06 6.02933 21.2413 6.392 21.604C6.776 21.9667 6.968 22.4253 6.968 22.98ZM4.056 18.116C3.992 17.8387 3.91733 17.38 3.832 16.74C3.768 16.1 3.736 15.492 3.736 14.916C3.736 14.34 3.768 13.9027 3.832 13.604C3.91733 13.284 4.09867 12.9427 4.376 12.58C4.65333 12.2173 4.856 11.9613 4.984 11.812C5.112 11.6627 5.42133 11.364 5.912 10.916C6.424 10.4467 6.744 10.148 6.872 10.02C8.17333 8.76134 8.824 7.27867 8.824 5.57201C8.824 4.42001 8.472 3.49201 7.768 2.78801C7.064 2.06267 6.264 1.70001 5.368 1.70001C3.42667 1.70001 2.456 2.10534 2.456 2.91601C2.456 3.04401 2.57333 3.25734 2.808 3.55601C3.064 3.85467 3.192 4.17467 3.192 4.51601C3.192 5.24134 2.69067 5.60401 1.688 5.60401C1.19733 5.60401 0.802667 5.47601 0.504 5.22001C0.205333 4.94267 0.056 4.58001 0.056 4.13201C0.056 2.91601 0.621333 1.93467 1.752 1.18801C2.904 0.44134 4.25867 0.0680065 5.816 0.0680065C7.37333 0.0680065 8.70667 0.622673 9.816 1.73201C10.9467 2.82001 11.512 4.29201 11.512 6.14801C11.512 7.68401 10.7547 9.16667 9.24 10.596C8.92 10.916 8.45067 11.332 7.832 11.844C7.21333 12.3347 6.81867 12.6867 6.648 12.9C6.09333 13.5827 5.784 14.596 5.72 15.94L5.56 18.5C5.112 18.6067 4.77067 18.66 4.536 18.66C4.32267 18.66 4.20533 18.6387 4.184 18.596C4.16267 18.5533 4.12 18.3933 4.056 18.116Z" fill="white"/>
</svg>
