<svg width="21" height="21" viewBox="0 0 21 21" fill="none" xmlns="http://www.w3.org/2000/svg">
<path id="Vector" d="M20.7688 3.20861C20.7688 1.82757 19.6492 0.708008 18.2682 0.708008H3.2694C1.88836 0.708008 0.768799 1.82757 0.768799 3.20861V18.2074C0.768799 19.5884 1.88836 20.708 3.2694 20.708H18.2682C19.6492 20.708 20.7688 19.5884 20.7688 18.2074V3.20861ZM17.4571 8.06533C17.4636 8.19956 17.4679 8.33472 17.4679 8.47086C17.4679 12.612 14.3189 17.3872 8.55461 17.3872C6.78424 17.3872 5.14383 16.868 3.75655 15.9795C4.00181 16.0074 4.26274 16.0233 4.51638 16.0233C5.98462 16.0233 7.3607 15.5217 8.43282 14.6817C7.0614 14.6556 5.95282 13.7503 5.55372 12.5048C5.74579 12.5411 6.03808 12.5616 6.24053 12.5616C6.52671 12.5616 6.69415 12.5235 6.95706 12.4517C5.52407 12.1636 4.5264 10.8967 4.5264 9.37881C4.5264 9.36492 4.5264 9.3528 4.5264 9.33973C4.5264 9.57462 5.34879 9.71542 5.86252 9.73212C5.02155 9.17008 4.23369 8.21069 4.23369 7.12361C4.23369 6.55028 4.4632 6.01145 4.73357 5.54808C6.27927 7.44444 8.62639 8.69176 11.2302 8.82325C11.1771 8.59394 11.168 8.3543 11.168 8.10912C11.168 6.37881 12.5806 4.97566 14.3118 4.97566C15.2133 4.97566 16.0319 5.357 16.6035 5.96575C17.3176 5.82412 17.9912 5.56395 18.5962 5.20507C18.3632 5.93598 17.8674 6.55123 17.2204 6.93821C17.853 6.86281 18.0815 6.6944 18.6426 6.44638C18.6434 6.44524 18.2718 6.44424 18.2718 6.44311V6.44502C18.2718 6.44555 18.6439 6.44587 18.6426 6.4464C18.2225 7.07329 18.0685 7.62424 17.4571 8.06533Z" fill="white" fill-opacity="0.8"/>
</svg>
