<svg width="30" height="21" viewBox="0 0 30 21" fill="none" xmlns="http://www.w3.org/2000/svg">
<path id="Vector" d="M29.2246 7.75664C29.2885 5.90601 28.8838 4.06923 28.048 2.41685C27.4809 1.73883 26.694 1.28128 25.8242 1.12392C22.2266 0.79749 18.6142 0.663696 15.0024 0.723113C11.4037 0.660999 7.80429 0.790475 4.21938 1.11099C3.51062 1.23992 2.85472 1.57236 2.33171 2.06776C1.16807 3.14089 1.03878 4.97684 0.90949 6.52836C0.721902 9.31793 0.721902 12.1169 0.90949 14.9065C0.946894 15.7798 1.07692 16.6466 1.29737 17.4924C1.45326 18.1454 1.76867 18.7495 2.21535 19.2508C2.74191 19.7724 3.41309 20.1237 4.14181 20.2592C6.92925 20.6033 9.73787 20.7459 12.5458 20.6859C17.0711 20.7506 21.0404 20.6859 25.7337 20.3239C26.4803 20.1967 27.1704 19.8449 27.7119 19.3154C28.0738 18.9533 28.3442 18.51 28.5005 18.0225C28.9629 16.6036 29.19 15.1187 29.1729 13.6265C29.2246 12.9025 29.2246 8.53239 29.2246 7.75664ZM12.0804 14.4023V6.39906L19.7345 10.4201C17.5882 11.6096 14.7567 12.9542 12.0804 14.4023Z" fill="white" fill-opacity="0.8"/>
</svg>
